<svg id="visual" viewBox="0 0 900 600" width="900" height="600" xmlns="http://www.w3.org/2000/svg" xmlns:xlink="http://www.w3.org/1999/xlink" version="1.1"><path d="M0 409L29 408L58 407L87 407L116 429L145 428L174 422L203 411L232 412L261 436L290 423L319 433L348 411L377 414L406 410L435 415L465 420L494 424L523 426L552 432L581 425L610 429L639 429L668 423L697 405L726 409L755 434L784 415L813 436L842 405L871 409L900 432L900 601L871 601L842 601L813 601L784 601L755 601L726 601L697 601L668 601L639 601L610 601L581 601L552 601L523 601L494 601L465 601L435 601L406 601L377 601L348 601L319 601L290 601L261 601L232 601L203 601L174 601L145 601L116 601L87 601L58 601L29 601L0 601Z" fill="#C0FAA0" stroke-linecap="square" stroke-linejoin="bevel"></path></svg>